<svg width="22" height="16" viewBox="0 0 22 16" fill="none" xmlns="http://www.w3.org/2000/svg">
<path d="M3.3 4.15V2C3.3 0.9 4.29 0 5.5 0H16.5C17.71 0 18.7 0.9 18.7 2V4.16C17.424 4.57 16.5 5.67 16.5 6.97V9H5.5V6.96C5.5 5.67 4.576 4.56 3.3 4.15ZM19.8 5C18.59 5 17.6 5.9 17.6 7V10H4.4V7C4.4 6.46957 4.16822 5.96086 3.75564 5.58579C3.34306 5.21071 2.78348 5 2.2 5C1.61652 5 1.05694 5.21071 0.644365 5.58579C0.231785 5.96086 0 6.46957 0 7V12C0 13.1 0.99 14 2.2 14V16H4.4V14H17.6V16H19.8V14C21.01 14 22 13.1 22 12V7C22 5.9 21.01 5 19.8 5Z" fill="#DDDDDD"/>
</svg>
