<svg width="15" height="15" viewBox="0 0 15 15" fill="none" xmlns="http://www.w3.org/2000/svg">
<path d="M8.17358 6.22949H12.0767C12.4388 6.22949 12.7514 6.22949 13.009 6.25058C13.2812 6.27257 13.5517 6.32208 13.8111 6.45408C14.1997 6.65208 14.5151 6.96741 14.7131 7.35608C14.8451 7.61549 14.8946 7.88591 14.9166 8.15816C14.9377 8.41483 14.9377 8.72833 14.9377 9.09041V11.1602C14.9377 11.5223 14.9377 11.8349 14.9166 12.0925C14.9024 12.3707 14.8332 12.6433 14.7131 12.8946C14.5155 13.2829 14.2001 13.5986 13.812 13.7966C13.5517 13.9286 13.2803 13.9781 13.009 14.0001C12.7523 14.0212 12.4388 14.0212 12.0767 14.0212H8.17266C7.81058 14.0212 7.498 14.0212 7.24041 14.0001C6.96223 13.9859 6.68962 13.9167 6.43833 13.7966C6.05004 13.599 5.73428 13.2836 5.53633 12.8955C5.41606 12.6439 5.34689 12.371 5.33283 12.0925C5.31175 11.8358 5.31175 11.5223 5.31175 11.1602V9.08949C5.31175 8.72741 5.31175 8.41482 5.33283 8.15724C5.34701 7.87906 5.41618 7.60645 5.53633 7.35516C5.73413 6.96673 6.0499 6.65096 6.43833 6.45316C6.68962 6.33301 6.96223 6.26384 7.24041 6.24966C7.49708 6.22858 7.81058 6.22857 8.17266 6.22857M7.35225 7.62008C7.16525 7.63566 7.09558 7.66133 7.06166 7.67874C6.93267 7.74459 6.82776 7.8495 6.76191 7.97849C6.74358 8.01333 6.71883 8.08208 6.70325 8.26908L6.70141 8.29107H13.5471L13.5452 8.26908C13.5297 8.08208 13.504 8.01241 13.4866 7.97849C13.4205 7.84936 13.3152 7.74444 13.1859 7.67874C13.152 7.66041 13.0832 7.63566 12.8962 7.62008C12.6142 7.60454 12.3317 7.59903 12.0492 7.60357H8.19925C7.80325 7.60357 7.54658 7.60358 7.35225 7.62008ZM13.5627 10.1253H6.68766V11.1337C6.68766 11.5297 6.68766 11.7863 6.70416 11.9807C6.71975 12.1677 6.74541 12.2373 6.76283 12.2703C6.82852 12.3997 6.93344 12.5049 7.06258 12.571C7.09741 12.5893 7.16616 12.6141 7.35316 12.6297C7.5475 12.6452 7.80416 12.6462 8.20016 12.6462H12.0502C12.4462 12.6462 12.7028 12.6462 12.8972 12.6297C13.0842 12.6141 13.1538 12.5884 13.1868 12.571C13.3163 12.5051 13.4216 12.3998 13.4875 12.2703C13.5058 12.2364 13.5306 12.1677 13.5462 11.9807C13.5617 11.7863 13.5627 11.5297 13.5627 11.1337V10.1253ZM0.958496 0.729492C0.77616 0.729492 0.601291 0.801925 0.47236 0.930856C0.343429 1.05979 0.270996 1.23466 0.270996 1.41699C0.270996 1.59933 0.343429 1.7742 0.47236 1.90313C0.601291 2.03206 0.77616 2.10449 0.958496 2.10449H4.62516C4.8075 2.10449 4.98237 2.03206 5.1113 1.90313C5.24023 1.7742 5.31266 1.59933 5.31266 1.41699C5.31266 1.23466 5.24023 1.05979 5.1113 0.930856C4.98237 0.801925 4.8075 0.729492 4.62516 0.729492H0.958496ZM0.270996 4.16699C0.270996 3.98466 0.343429 3.80979 0.47236 3.68086C0.601291 3.55193 0.77616 3.47949 0.958496 3.47949H7.37516C7.5575 3.47949 7.73237 3.55193 7.8613 3.68086C7.99023 3.80979 8.06266 3.98466 8.06266 4.16699C8.06266 4.34933 7.99023 4.5242 7.8613 4.65313C7.73237 4.78206 7.5575 4.85449 7.37516 4.85449H0.958496C0.77616 4.85449 0.601291 4.78206 0.47236 4.65313C0.343429 4.5242 0.270996 4.34933 0.270996 4.16699ZM0.958496 6.22949C0.77616 6.22949 0.601291 6.30193 0.47236 6.43086C0.343429 6.55979 0.270996 6.73466 0.270996 6.91699C0.270996 7.09933 0.343429 7.2742 0.47236 7.40313C0.601291 7.53206 0.77616 7.60449 0.958496 7.60449H4.16683C4.34917 7.60449 4.52403 7.53206 4.65296 7.40313C4.7819 7.2742 4.85433 7.09933 4.85433 6.91699C4.85433 6.73466 4.7819 6.55979 4.65296 6.43086C4.52403 6.30193 4.34917 6.22949 4.16683 6.22949H0.958496ZM0.270996 10.5837C0.270996 10.4013 0.343429 10.2265 0.47236 10.0975C0.601291 9.96859 0.77616 9.89616 0.958496 9.89616H2.79183C2.97417 9.89616 3.14903 9.96859 3.27796 10.0975C3.4069 10.2265 3.47933 10.4013 3.47933 10.5837C3.47933 10.766 3.4069 10.9409 3.27796 11.0698C3.14903 11.1987 2.97417 11.2712 2.79183 11.2712H0.958496C0.77616 11.2712 0.601291 11.1987 0.47236 11.0698C0.343429 10.9409 0.270996 10.766 0.270996 10.5837Z" fill="#AAAAAA"/>
</svg>
