<svg width="14" height="14" viewBox="0 0 14 14" fill="none" xmlns="http://www.w3.org/2000/svg">
<g clip-path="url(#clip0_17458_2238)">
<path d="M0.51997 3.46765C0.418901 3.4506 0.215013 3.29984 0.147634 3.21682C-0.169574 2.82528 0.0509403 2.17855 0.555847 2.09421L13.3522 2.08984C13.956 2.10601 14.2168 2.87291 13.7902 3.28368C13.7416 3.33043 13.5373 3.46765 13.4822 3.46765H11.9399L11.8909 3.51659V12.2016C11.8909 12.9335 10.8657 13.908 10.1268 13.9465C8.12857 13.8564 5.97856 14.0955 3.99744 13.9565C3.24226 13.9036 2.5291 13.3465 2.25127 12.6525C2.21933 12.5726 2.11213 12.2645 2.11213 12.2016V3.51702L2.06313 3.46808H0.51997V3.46765ZM5.5511 5.57302C5.21464 5.59662 4.96875 5.85269 4.90399 6.17431C4.9775 7.34585 4.7968 8.65548 4.89962 9.81043C4.97794 10.6848 6.20607 10.6879 6.30846 9.80562C6.24151 8.67427 6.40952 7.41795 6.31327 6.30103C6.27827 5.89551 5.986 5.54199 5.5511 5.57258V5.57302ZM8.33946 5.57215C7.99906 5.6023 7.72648 5.90993 7.69367 6.24073C7.76061 7.37207 7.5926 8.62839 7.68885 9.74532C7.76673 10.6459 8.89774 10.736 9.09813 9.87248C9.02463 8.70093 9.20532 7.3913 9.10251 6.23636C9.06794 5.84832 8.73848 5.53762 8.33946 5.57258V5.57215Z" fill="#676767"/>
<path d="M5.41625 0H8.58439C9.28706 0.244709 9.27087 1.15145 8.55682 1.36688L5.41625 1.36163C4.72583 1.11955 4.72583 0.241651 5.41625 0Z" fill="#676767"/>
</g>
<defs>
<clipPath id="clip0_17458_2238">
<rect width="14" height="14" fill="white"/>
</clipPath>
</defs>
</svg>
