<svg width="15" height="15" viewBox="0 0 15 15" fill="none" xmlns="http://www.w3.org/2000/svg">
<path d="M3.056 5.43782V10.9378C3.056 11.4846 3.27859 12.0094 3.67524 12.3957C4.07503 12.7844 4.61103 13.0013 5.16865 13H10.8019C11.3623 13 11.8994 12.7826 12.2954 12.3957C12.4906 12.2063 12.646 11.9797 12.7524 11.7293C12.8587 11.479 12.9139 11.2098 12.9146 10.9378V5.43782M3.056 5.43782C2.47235 5.43782 2 4.97582 2 4.40641V3.03141C2 2.462 2.473 2 3.056 2H12.9146C13.4982 2 13.9706 2.462 13.9706 3.03141V4.40641C13.9706 4.97582 13.4976 5.43782 12.9146 5.43782M3.056 5.43782H12.9146" stroke="#0087FA" stroke-width="1.2" stroke-linecap="round" stroke-linejoin="round"/>
<path d="M7.98535 10.7353V7.5" stroke="#0087FA" stroke-width="1.2" stroke-miterlimit="10" stroke-linecap="round"/>
<path d="M6.50159 9.375L7.77435 10.6478C7.80201 10.6755 7.83488 10.6976 7.87108 10.7126C7.90728 10.7277 7.94609 10.7354 7.98529 10.7354C8.02449 10.7354 8.06331 10.7277 8.09951 10.7126C8.13571 10.6976 8.16858 10.6755 8.19623 10.6478L9.469 9.375" stroke="#0087FA" stroke-width="1.2" stroke-linecap="round" stroke-linejoin="round"/>
</svg>
