<svg width="20" height="20" viewBox="0 0 20 20" fill="none" xmlns="http://www.w3.org/2000/svg">
<path d="M10.625 11.365V8.63495C11.042 8.48752 11.3935 8.19741 11.6173 7.8159C11.8411 7.4344 11.9228 6.98606 11.848 6.55012C11.7732 6.11419 11.5467 5.71873 11.2085 5.43364C10.8704 5.14855 10.4423 4.99219 10 4.99219C9.5577 4.99219 9.12963 5.14855 8.79147 5.43364C8.4533 5.71873 8.2268 6.11419 8.15201 6.55012C8.07721 6.98606 8.15894 7.4344 8.38273 7.8159C8.60653 8.19741 8.958 8.48752 9.375 8.63495V11.3656C8.958 11.513 8.60653 11.8031 8.38273 12.1846C8.15894 12.5661 8.07721 13.0145 8.15201 13.4504C8.2268 13.8863 8.4533 14.2818 8.79147 14.5669C9.12963 14.852 9.5577 15.0083 10 15.0083C10.4423 15.0083 10.8704 14.852 11.2085 14.5669C11.5467 14.2818 11.7732 13.8863 11.848 13.4504C11.9228 13.0145 11.8411 12.5661 11.6173 12.1846C11.3935 11.8031 11.042 11.5124 10.625 11.365ZM10 6.24995C10.1236 6.24995 10.2445 6.28661 10.3472 6.35529C10.45 6.42396 10.5301 6.52157 10.5774 6.63578C10.6247 6.74998 10.6371 6.87565 10.613 6.99689C10.5889 7.11812 10.5294 7.22949 10.4419 7.3169C10.3545 7.4043 10.2432 7.46383 10.1219 7.48795C10.0007 7.51206 9.87503 7.49968 9.76083 7.45238C9.64662 7.40507 9.54901 7.32497 9.48034 7.22219C9.41166 7.11941 9.375 6.99857 9.375 6.87495C9.375 6.70919 9.44085 6.55022 9.55806 6.43301C9.67527 6.3158 9.83424 6.24995 10 6.24995ZM10 13.75C9.87639 13.75 9.75555 13.7133 9.65277 13.6446C9.54999 13.5759 9.46988 13.4783 9.42258 13.3641C9.37527 13.2499 9.3629 13.1243 9.38701 13.003C9.41113 12.8818 9.47065 12.7704 9.55806 12.683C9.64547 12.5956 9.75683 12.5361 9.87807 12.512C9.99931 12.4878 10.125 12.5002 10.2392 12.5475C10.3534 12.5948 10.451 12.6749 10.5197 12.7777C10.5883 12.8805 10.625 13.0013 10.625 13.125C10.625 13.2907 10.5592 13.4497 10.4419 13.5669C10.3247 13.6841 10.1658 13.75 10 13.75Z" fill="#AAAAAA"/>
<path d="M19.0086 10.8841C19.243 10.6497 19.3746 10.3318 19.3746 10.0004C19.3746 9.6689 19.243 9.35102 19.0086 9.11661L15.3917 5.49973L17.2042 3.71098C17.4716 3.77753 17.7534 3.75399 18.006 3.64401C18.2586 3.53402 18.4679 3.34374 18.6013 3.1027C18.7347 2.86165 18.7848 2.58331 18.7439 2.31086C18.7029 2.03842 18.5732 1.7871 18.3749 1.59591C18.1765 1.40471 17.9206 1.28433 17.6468 1.25343C17.373 1.22254 17.0967 1.28286 16.8608 1.42504C16.6248 1.56722 16.4423 1.78332 16.3417 2.03979C16.2411 2.29626 16.2279 2.57877 16.3042 2.84348L14.508 4.61598L10.8836 0.990983C10.6492 0.756644 10.3313 0.625 9.99987 0.625C9.66841 0.625 9.35053 0.756644 9.11612 0.990983L5.49924 4.60911L3.71049 2.79536C3.7767 2.52795 3.75281 2.24617 3.64253 1.99373C3.53225 1.74129 3.34174 1.53229 3.10055 1.39917C2.85937 1.26606 2.581 1.21625 2.30862 1.25749C2.03625 1.29872 1.78509 1.42869 1.59412 1.62724C1.40315 1.82578 1.28304 2.0818 1.25242 2.35557C1.2218 2.62934 1.28239 2.90557 1.42478 3.1414C1.56718 3.37722 1.78342 3.55946 2.03995 3.65985C2.29649 3.76024 2.57899 3.77316 2.84362 3.69661L4.61549 5.49223L0.990495 9.11661C0.756156 9.35102 0.624512 9.6689 0.624512 10.0004C0.624512 10.3318 0.756156 10.6497 0.990495 10.8841L4.61549 14.5085L2.84362 16.3041C2.57955 16.228 2.29776 16.2412 2.04194 16.3416C1.78611 16.4419 1.57054 16.6239 1.42863 16.8592C1.28672 17.0946 1.2264 17.3701 1.25703 17.6432C1.28765 17.9163 1.4075 18.1717 1.598 18.3697C1.78851 18.5678 2.03902 18.6975 2.31072 18.7387C2.58242 18.7799 2.86013 18.7304 3.1008 18.5977C3.34146 18.465 3.53165 18.2567 3.64189 18.005C3.75212 17.7532 3.77623 17.4722 3.71049 17.2054L5.49924 15.3929L9.11612 19.0091C9.35053 19.2434 9.66841 19.3751 9.99987 19.3751C10.3313 19.3751 10.6492 19.2434 10.8836 19.0091L14.5086 15.3847L16.3036 17.1572C16.2276 17.4213 16.2407 17.7031 16.3411 17.9589C16.4415 18.2147 16.6234 18.4303 16.8587 18.5722C17.0941 18.7141 17.3696 18.7744 17.6427 18.7438C17.9158 18.7132 18.1712 18.5934 18.3693 18.4028C18.5673 18.2123 18.697 17.9618 18.7382 17.6901C18.7794 17.4184 18.7299 17.1407 18.5972 16.9001C18.4646 16.6594 18.2562 16.4692 18.0045 16.359C17.7528 16.2487 17.4717 16.2246 17.2049 16.2904L15.3924 14.501L19.0086 10.8841ZM9.99987 18.1254L1.87487 10.0004L9.99987 1.87536L18.1249 10.0004L9.99987 18.1254Z" fill="#AAAAAA"/>
</svg>
