<svg width="23" height="16" viewBox="0 0 23 16" fill="none" xmlns="http://www.w3.org/2000/svg">
<path d="M3.8 4.15V2C3.8 0.9 4.79 0 6 0H17C18.21 0 19.2 0.9 19.2 2V4.16C17.924 4.57 17 5.67 17 6.97V9H6V6.96C6 5.67 5.076 4.56 3.8 4.15ZM20.3 5C19.09 5 18.1 5.9 18.1 7V10H4.9V7C4.9 6.46957 4.66822 5.96086 4.25564 5.58579C3.84306 5.21071 3.28348 5 2.7 5C2.11652 5 1.55694 5.21071 1.14437 5.58579C0.731785 5.96086 0.5 6.46957 0.5 7V12C0.5 13.1 1.49 14 2.7 14V16H4.9V14H18.1V16H20.3V14C21.51 14 22.5 13.1 22.5 12V7C22.5 5.9 21.51 5 20.3 5Z" fill="#6BCB99"/>
</svg>
