<svg width="24" height="24" viewBox="0 0 24 24" fill="none" xmlns="http://www.w3.org/2000/svg">
<path d="M16.067 8.99502C16.1386 8.92587 16.1958 8.84314 16.2352 8.75165C16.2745 8.66017 16.2952 8.56176 16.2962 8.46218C16.2971 8.3626 16.2781 8.26383 16.2405 8.17164C16.2028 8.07945 16.1472 7.99568 16.0768 7.92523C16.0064 7.85478 15.9227 7.79905 15.8305 7.7613C15.7384 7.72354 15.6396 7.70452 15.54 7.70534C15.4404 7.70616 15.342 7.7268 15.2505 7.76606C15.159 7.80532 15.0762 7.86242 15.007 7.93402L12.001 10.939L8.99597 7.93402C8.92731 7.86033 8.84451 7.80123 8.75251 7.76024C8.66051 7.71925 8.5612 7.69721 8.4605 7.69543C8.35979 7.69365 8.25976 7.71218 8.16638 7.7499C8.07299 7.78762 7.98815 7.84376 7.91694 7.91498C7.84572 7.9862 7.78957 8.07103 7.75185 8.16442C7.71413 8.25781 7.69561 8.35784 7.69738 8.45854C7.69916 8.55925 7.7212 8.65856 7.76219 8.75056C7.80319 8.84256 7.86229 8.92536 7.93597 8.99402L10.939 12L7.93397 15.005C7.80149 15.1472 7.72937 15.3352 7.7328 15.5295C7.73623 15.7238 7.81494 15.9092 7.95235 16.0466C8.08977 16.1841 8.27515 16.2628 8.46945 16.2662C8.66375 16.2696 8.8518 16.1975 8.99397 16.065L12.001 13.06L15.006 16.066C15.1481 16.1985 15.3362 16.2706 15.5305 16.2672C15.7248 16.2638 15.9102 16.1851 16.0476 16.0476C16.185 15.9102 16.2637 15.7248 16.2671 15.5305C16.2706 15.3362 16.1985 15.1482 16.066 15.006L13.063 12L16.067 8.99502Z" fill="#6A6A6A"/>
</svg>
