<svg width="14" height="15" viewBox="0 0 14 15" fill="none" xmlns="http://www.w3.org/2000/svg">
  <path d="M11.1089 7.31803V3.36863C11.1089 3.31876 11.0991 3.26937 11.08 3.22329C11.0609 3.17722 11.0329 3.13536 10.9977 3.10011L9.00874 1.1112C8.93772 1.04009 8.84136 1.00009 8.74086 1H1.37908C1.27854 1 1.18212 1.03994 1.11103 1.11103C1.03994 1.18212 1 1.27854 1 1.37908V13.257C1 13.3575 1.03994 13.4539 1.11103 13.525C1.18212 13.5961 1.27854 13.6361 1.37908 13.6361H6.68623M3.52721 6.05443H8.58164M3.52721 3.52721H6.05443M3.52721 8.58164H5.42262" stroke="#676767" stroke-linecap="round" stroke-linejoin="round"/>
  <path d="M8.58203 1V3.14813C8.58203 3.24867 8.62197 3.34509 8.69306 3.41618C8.76415 3.48727 8.86057 3.52721 8.96111 3.52721H11.1092M11.1042 9.29242L12.7191 9.70246C12.8871 9.74542 13.0053 9.89832 13.0002 10.0714C12.8916 13.7094 10.7933 14.2679 10.7933 14.2679C10.7933 14.2679 8.69512 13.7094 8.58645 10.0714C8.58473 9.98721 8.61159 9.90489 8.66264 9.83789C8.7137 9.77088 8.78595 9.72315 8.86761 9.70246L10.4825 9.29242C10.6866 9.24061 10.9001 9.24061 11.1042 9.29242Z" stroke="#676767" stroke-linecap="round" stroke-linejoin="round"/>
</svg>
