<svg width="22" height="22" viewBox="0 0 22 22" fill="none" xmlns="http://www.w3.org/2000/svg">
<path d="M9.28125 4.46875V4.8125H12.7188V4.46875C12.7188 4.01291 12.5377 3.57574 12.2153 3.25341C11.893 2.93108 11.4558 2.75 11 2.75C10.5442 2.75 10.107 2.93108 9.78466 3.25341C9.46233 3.57574 9.28125 4.01291 9.28125 4.46875ZM7.90625 4.8125V4.46875C7.90625 3.64824 8.2322 2.86133 8.81239 2.28114C9.39258 1.70095 10.1795 1.375 11 1.375C11.8205 1.375 12.6074 1.70095 13.1876 2.28114C13.7678 2.86133 14.0938 3.64824 14.0938 4.46875V4.8125H19.25C19.4323 4.8125 19.6072 4.88493 19.7361 5.01386C19.8651 5.1428 19.9375 5.31766 19.9375 5.5C19.9375 5.68234 19.8651 5.8572 19.7361 5.98614C19.6072 6.11507 19.4323 6.1875 19.25 6.1875H18.2133L16.9125 17.578C16.8166 18.4169 16.4153 19.1911 15.7851 19.7531C15.1549 20.315 14.34 20.6254 13.4956 20.625H8.50437C7.66003 20.6254 6.84507 20.315 6.2149 19.7531C5.58472 19.1911 5.18342 18.4169 5.0875 17.578L3.78675 6.1875H2.75C2.56766 6.1875 2.3928 6.11507 2.26386 5.98614C2.13493 5.8572 2.0625 5.68234 2.0625 5.5C2.0625 5.31766 2.13493 5.1428 2.26386 5.01386C2.3928 4.88493 2.56766 4.8125 2.75 4.8125H7.90625ZM6.45425 17.4212C6.51165 17.9244 6.75218 18.3889 7.13001 18.7262C7.50784 19.0634 7.99655 19.2499 8.503 19.25H13.4963C14.0028 19.2499 14.4915 19.0634 14.8693 18.7262C15.2471 18.3889 15.4877 17.9244 15.5451 17.4212L16.83 6.1875H5.17069L6.45425 17.4212ZM8.9375 8.59375C9.11984 8.59375 9.2947 8.66618 9.42364 8.79511C9.55257 8.92405 9.625 9.09891 9.625 9.28125V16.1562C9.625 16.3386 9.55257 16.5135 9.42364 16.6424C9.2947 16.7713 9.11984 16.8438 8.9375 16.8438C8.75516 16.8438 8.5803 16.7713 8.45136 16.6424C8.32243 16.5135 8.25 16.3386 8.25 16.1562V9.28125C8.25 9.09891 8.32243 8.92405 8.45136 8.79511C8.5803 8.66618 8.75516 8.59375 8.9375 8.59375ZM13.75 9.28125C13.75 9.09891 13.6776 8.92405 13.5486 8.79511C13.4197 8.66618 13.2448 8.59375 13.0625 8.59375C12.8802 8.59375 12.7053 8.66618 12.5764 8.79511C12.4474 8.92405 12.375 9.09891 12.375 9.28125V16.1562C12.375 16.3386 12.4474 16.5135 12.5764 16.6424C12.7053 16.7713 12.8802 16.8438 13.0625 16.8438C13.2448 16.8438 13.4197 16.7713 13.5486 16.6424C13.6776 16.5135 13.75 16.3386 13.75 16.1562V9.28125Z" fill="#4C5566"/>
</svg>
