<svg width="15" height="15" viewBox="0 0 15 15" fill="none" xmlns="http://www.w3.org/2000/svg">
<mask id="mask0_16013_4191" style="mask-type:alpha" maskUnits="userSpaceOnUse" x="0" y="0" width="15" height="15">
<rect width="15" height="15" fill="#D9D9D9"/>
</mask>
<g mask="url(#mask0_16013_4191)">
<path d="M4.99878 13.75C4.65503 13.75 4.36076 13.6276 4.11597 13.3828C3.87117 13.138 3.74878 12.8437 3.74878 12.5V11.25H2.49878C2.15503 11.25 1.86076 11.1276 1.61597 10.8828C1.37118 10.638 1.24878 10.3437 1.24878 10V8.75H2.49878V10H3.74878V5C3.74878 4.65625 3.87117 4.36198 4.11597 4.11719C4.36076 3.8724 4.65503 3.75 4.99878 3.75H9.99878V2.5H8.74878V1.25H9.99878C10.3425 1.25 10.6368 1.3724 10.8816 1.61719C11.1264 1.86198 11.2488 2.15625 11.2488 2.5V3.75H12.4988C12.8425 3.75 13.1368 3.8724 13.3816 4.11719C13.6264 4.36198 13.7488 4.65625 13.7488 5V12.5C13.7488 12.8437 13.6264 13.138 13.3816 13.3828C13.1368 13.6276 12.8425 13.75 12.4988 13.75H4.99878ZM4.99878 12.5H12.4988V5H4.99878V12.5ZM1.24878 7.5V5H2.49878V7.5H1.24878ZM1.24878 3.75V2.5C1.24878 2.15625 1.37118 1.86198 1.61597 1.61719C1.86076 1.3724 2.15503 1.25 2.49878 1.25H3.74878V2.5H2.49878V3.75H1.24878ZM4.99878 2.5V1.25H7.49878V2.5H4.99878Z" fill="#676767"/>
</g>
</svg>