<svg width="24" height="24" viewBox="0 0 24 24" fill="none" xmlns="http://www.w3.org/2000/svg">
<path d="M19.3002 7.47917C19.3035 8.19835 19.0811 8.83184 18.5885 9.3539C18.1573 9.81088 17.7027 10.2458 17.2584 10.6902C14.8517 13.0963 12.4339 15.4917 10.0497 17.9203C9.67845 18.2986 9.27438 18.4616 8.79306 18.5519C8.32485 18.6395 7.85851 18.7383 7.39264 18.8394C6.72731 18.9841 6.06478 19.1438 5.39805 19.281C4.96355 19.3704 4.62316 19.008 4.71399 18.5721C4.92984 17.5355 5.1527 16.5002 5.37557 15.465C5.44112 15.1611 5.50714 14.8568 5.59048 14.5576C5.62092 14.4476 5.68225 14.3319 5.76232 14.2514C8.6938 11.3138 11.6267 8.37768 14.5661 5.44807C14.9608 5.05477 15.4464 4.82019 16.0096 4.74247C16.7569 4.63993 17.4597 4.73732 18.0876 5.17182C18.7159 5.60679 19.1186 6.20002 19.2473 6.96227C19.2764 7.13223 19.2829 7.3064 19.2993 7.47824L19.3002 7.47917ZM5.99783 17.9934C6.27595 17.9362 6.52551 17.8866 6.7746 17.8332C7.3519 17.7096 7.92687 17.5753 8.50605 17.4629C8.82256 17.4015 9.08663 17.2939 9.32495 17.0518C10.974 15.3817 12.639 13.727 14.2988 12.0677C14.7661 11.6009 15.2338 11.1345 15.6781 10.6911C14.8803 9.89328 14.0876 9.1006 13.2832 8.29621C13.2519 8.33039 13.2102 8.37908 13.1652 8.4245C11.0587 10.5315 8.95366 12.6394 6.84155 14.7412C6.67955 14.9027 6.61166 15.0853 6.56764 15.2946C6.40986 16.0433 6.24786 16.7905 6.08819 17.5387C6.05682 17.6853 6.0292 17.8332 5.99736 17.9929L5.99783 17.9934ZM14.1073 7.46934C14.1293 7.50258 14.1363 7.51804 14.148 7.52974C14.8967 8.27888 15.6472 9.02662 16.3931 9.77857C16.4825 9.86847 16.5326 9.8385 16.6052 9.76452C16.9461 9.41851 17.2832 9.06829 17.6367 8.73539C18.1297 8.27092 18.2678 7.69783 18.1199 7.06808C17.8928 6.10216 17.0261 5.70324 16.1211 5.85728C15.7928 5.913 15.5246 6.08858 15.2876 6.32971C14.9046 6.7202 14.5015 7.09056 14.1073 7.46887V7.46934Z" fill="#0083FF"/>
</svg>
