<svg width="16" height="16" viewBox="0 0 16 16" fill="none" xmlns="http://www.w3.org/2000/svg">
<g clip-path="url(#clip0_7288_679)">
<path d="M3.64844 13.4258C3.30469 13.4258 3.01042 13.3034 2.76562 13.0586C2.52083 12.8138 2.39844 12.5195 2.39844 12.1758V3.42578C2.39844 3.08203 2.52083 2.78776 2.76562 2.54297C3.01042 2.29818 3.30469 2.17578 3.64844 2.17578H9.22656L7.97656 3.42578H3.64844V12.1758H12.3984V7.83203L13.6484 6.58203V12.1758C13.6484 12.5195 13.526 12.8138 13.2812 13.0586C13.0365 13.3034 12.7422 13.4258 12.3984 13.4258H3.64844ZM6.14844 9.67578V7.01953L11.8828 1.28516C12.0078 1.16016 12.1484 1.06641 12.3047 1.00391C12.4609 0.941406 12.6172 0.910156 12.7734 0.910156C12.9401 0.910156 13.099 0.941406 13.25 1.00391C13.401 1.06641 13.5391 1.16016 13.6641 1.28516L14.5391 2.17578C14.6536 2.30078 14.7422 2.4388 14.8047 2.58984C14.8672 2.74089 14.8984 2.89453 14.8984 3.05078C14.8984 3.20703 14.8698 3.36068 14.8125 3.51172C14.7552 3.66276 14.6641 3.80078 14.5391 3.92578L8.80469 9.67578H6.14844ZM7.39844 8.42578H8.27344L11.8984 4.80078L11.4609 4.36328L11.0078 3.92578L7.39844 7.53516V8.42578Z" fill="#676767"/>
</g>
<defs>
<clipPath id="clip0_7288_679">
<rect width="15" height="15" fill="white" transform="translate(0.523438 0.300781)"/>
</clipPath>
</defs>
</svg>
