<svg width="13" height="13" viewBox="0 0 13 13" fill="none" xmlns="http://www.w3.org/2000/svg">
<path d="M1.91667 12.2516C1.59583 12.2516 1.32118 12.1373 1.09271 11.9089C0.864236 11.6804 0.75 11.4057 0.75 11.0849V2.91823C0.75 2.5974 0.864236 2.32274 1.09271 2.09427C1.32118 1.8658 1.59583 1.75156 1.91667 1.75156H7.12292L5.95625 2.91823H1.91667V11.0849H10.0833V7.03073L11.25 5.86406V11.0849C11.25 11.4057 11.1358 11.6804 10.9073 11.9089C10.6788 12.1373 10.4042 12.2516 10.0833 12.2516H1.91667ZM4.25 8.75156V6.2724L9.60208 0.920312C9.71875 0.803646 9.85 0.716146 9.99583 0.657812C10.1417 0.599479 10.2875 0.570312 10.4333 0.570312C10.5889 0.570312 10.7372 0.599479 10.8781 0.657812C11.0191 0.716146 11.1479 0.803646 11.2646 0.920312L12.0813 1.75156C12.1882 1.86823 12.2708 1.99705 12.3292 2.13802C12.3875 2.27899 12.4167 2.4224 12.4167 2.56823C12.4167 2.71406 12.3899 2.85747 12.3365 2.99844C12.283 3.13941 12.1979 3.26823 12.0813 3.3849L6.72917 8.75156H4.25ZM5.41667 7.5849H6.23333L9.61667 4.20156L9.20833 3.79323L8.78542 3.3849L5.41667 6.75364V7.5849Z" fill="#7E7E7E"/>
</svg>
