<svg width="20" height="20" viewBox="0 0 20 20" fill="none" xmlns="http://www.w3.org/2000/svg">
<path d="M9.16683 14.9997H10.8335V17.4997H9.16683V14.9997ZM13.3335 17.4997V19.1663H6.66683V17.4997H13.3335ZM16.6668 14.9997H3.3335C2.67066 14.999 2.03516 14.7354 1.56646 14.2667C1.09776 13.798 0.834158 13.1625 0.833496 12.4997V3.33301C0.834158 2.67017 1.09776 2.03467 1.56646 1.56597C2.03516 1.09727 2.67066 0.83367 3.3335 0.833008H16.6668C17.3297 0.83367 17.9652 1.09727 18.4339 1.56597C18.9026 2.03467 19.1662 2.67017 19.1668 3.33301V12.4997C19.1662 13.1625 18.9026 13.798 18.4339 14.2667C17.9652 14.7354 17.3297 14.999 16.6668 14.9997ZM3.3335 2.49967C3.11248 2.49967 2.90052 2.58747 2.74424 2.74375C2.58796 2.90003 2.50016 3.11199 2.50016 3.33301V12.4997C2.50016 12.7207 2.58796 12.9327 2.74424 13.0889C2.90052 13.2452 3.11248 13.333 3.3335 13.333H16.6668C16.8878 13.333 17.0998 13.2452 17.2561 13.0889C17.4124 12.9327 17.5002 12.7207 17.5002 12.4997V3.33301C17.5002 3.11199 17.4124 2.90003 17.2561 2.74375C17.0998 2.58747 16.8878 2.49967 16.6668 2.49967H3.3335Z" fill="#AAAAAA"/>
<path d="M13.3332 12.4997L11.7382 7.18301L10.8332 10.833L9.74234 8.33301H9.4665L8.33317 11.6663L7.369 8.27717L6.924 9.16634H4.1665V8.33301H6.409L7.49984 5.83301L8.38984 8.92718L8.8665 7.49967H10.2573L10.6632 8.31051L11.6665 3.33301L13.3332 9.99968L13.8665 8.33301H15.8332V9.16634H14.4665L13.3332 12.4997Z" fill="#AAAAAA"/>
</svg>
