<svg width="23" height="16" viewBox="0 0 23 16" fill="none" xmlns="http://www.w3.org/2000/svg">
<path d="M3.55781 4.15V2C3.55781 0.9 4.54781 0 5.75781 0H16.7578C17.9678 0 18.9578 0.9 18.9578 2V4.16C17.6818 4.57 16.7578 5.67 16.7578 6.97V9H5.75781V6.96C5.75781 5.67 4.83381 4.56 3.55781 4.15ZM20.0578 5C18.8478 5 17.8578 5.9 17.8578 7V10H4.65781V7C4.65781 6.46957 4.42603 5.96086 4.01345 5.58579C3.60087 5.21071 3.04129 5 2.45781 5C1.87434 5 1.31476 5.21071 0.902178 5.58579C0.489597 5.96086 0.257813 6.46957 0.257812 7V12C0.257812 13.1 1.24781 14 2.45781 14V16H4.65781V14H17.8578V16H20.0578V14C21.2678 14 22.2578 13.1 22.2578 12V7C22.2578 5.9 21.2678 5 20.0578 5Z" fill="#B5D5FF"/>
</svg>
