<svg width="32" height="21" viewBox="0 0 32 21" fill="none" xmlns="http://www.w3.org/2000/svg">
<path d="M4.8 6.225V3C4.8 1.35 6.24 0 8 0H24C25.76 0 27.2 1.35 27.2 3V6.24C25.344 6.855 24 8.505 24 10.455V13.5H8V10.44C8 8.505 6.656 6.84 4.8 6.225ZM28.8 7.5C27.04 7.5 25.6 8.85 25.6 10.5V15H6.4V10.5C6.4 9.70435 6.06286 8.94129 5.46274 8.37868C4.86263 7.81607 4.04869 7.5 3.2 7.5C2.35131 7.5 1.53737 7.81607 0.937258 8.37868C0.337142 8.94129 0 9.70435 0 10.5V18C0 19.65 1.44 21 3.2 21H6.4H25.6H28.8C30.56 21 32 19.65 32 18V10.5C32 8.85 30.56 7.5 28.8 7.5Z" fill="#D0D0D0"/>
</svg>
