<svg width="22" height="16" viewBox="0 0 22 16" fill="none" xmlns="http://www.w3.org/2000/svg">
<path d="M3.30781 4.15V2C3.30781 0.9 4.29781 0 5.50781 0H16.5078C17.7178 0 18.7078 0.9 18.7078 2V4.16C17.4318 4.57 16.5078 5.67 16.5078 6.97V9H5.50781V6.96C5.50781 5.67 4.58381 4.56 3.30781 4.15ZM19.8078 5C18.5978 5 17.6078 5.9 17.6078 7V10H4.40781V7C4.40781 6.46957 4.17603 5.96086 3.76345 5.58579C3.35087 5.21071 2.79129 5 2.20781 5C1.62434 5 1.06476 5.21071 0.652178 5.58579C0.239597 5.96086 0.0078125 6.46957 0.0078125 7V12C0.0078125 13.1 0.997813 14 2.20781 14V16H4.40781V14H17.6078V16H19.8078V14C21.0178 14 22.0078 13.1 22.0078 12V7C22.0078 5.9 21.0178 5 19.8078 5Z" fill="#FFC300"/>
</svg>
