<svg width="14" height="14" viewBox="0 0 14 14" fill="none" xmlns="http://www.w3.org/2000/svg">
<path d="M6.3788 13.2121C6.0988 13.2121 5.82464 13.1421 5.56797 13.0021C5.05464 12.7163 4.74547 12.1971 4.74547 11.6138V8.52211C4.74547 8.23044 4.55297 7.79294 4.37213 7.57128L2.19047 5.26128C1.82297 4.89378 1.54297 4.26378 1.54297 3.79128V2.44961C1.54297 1.51628 2.2488 0.787109 3.14714 0.787109H10.8471C11.7338 0.787109 12.4513 1.50461 12.4513 2.39128V3.67461C12.4513 4.28711 12.0838 4.98128 11.7396 5.32544L9.2138 7.55961C8.9688 7.76378 8.7763 8.21294 8.7763 8.57461V11.0829C8.7763 11.6021 8.44963 12.2029 8.0413 12.4479L7.2363 12.9671C6.9738 13.1304 6.6763 13.2121 6.3788 13.2121ZM3.14714 1.66211C2.7388 1.66211 2.41797 2.00628 2.41797 2.44961V3.79128C2.41797 4.00711 2.59297 4.42711 2.81464 4.64878L5.03714 6.98794C5.33464 7.35544 5.6263 7.96794 5.6263 8.51628V11.6079C5.6263 11.9871 5.8888 12.1738 5.99963 12.2321C6.24463 12.3663 6.54213 12.3663 6.76963 12.2263L7.58047 11.7071C7.7438 11.6079 7.90713 11.2929 7.90713 11.0829V8.57461C7.90713 7.95044 8.21047 7.26211 8.64797 6.89461L11.1446 4.68378C11.343 4.48544 11.5821 4.01294 11.5821 3.66878V2.39128C11.5821 1.98878 11.2555 1.66211 10.853 1.66211H3.14714Z" fill="#C7C7C7" stroke="#0087FA" stroke-width="0.8"/>
<path d="M3.49818 6.27058C3.41652 6.27058 3.34068 6.24725 3.26485 6.20641C3.06068 6.07808 2.99652 5.80391 3.12485 5.59975L6.00068 0.991413C6.12902 0.787247 6.39735 0.72308 6.60152 0.851413C6.80568 0.979747 6.86985 1.24808 6.74152 1.45225L3.86568 6.06058C3.78402 6.19475 3.64402 6.27058 3.49818 6.27058Z" fill="#C7C7C7" stroke="#0087FA" stroke-width="0.8"/>
</svg>