<svg width="33" height="18" viewBox="0 0 33 18" fill="none" xmlns="http://www.w3.org/2000/svg">
<g clip-path="url(#clip0_208_275)">
<path d="M0.105478 10.619L9.24394 16.8836C10.1726 17.5203 11.3892 17.5297 12.3272 16.9117L32.3873 3.63333C33.3624 2.9872 33.1395 1.48894 32.0251 1.1612L28.9139 0.224784C27.5673 -0.177873 26.1278 -0.0467754 24.8833 0.608714L19.8033 3.3805L11.2592 0.711719C10.3677 0.430795 9.42039 0.421431 8.52884 0.674263L5.25051 1.61068L14.8255 7.0606L8.696 10.9561L4.86045 9.15817C4.13606 9.00834 3.3931 9.09262 2.72443 9.40163L0.0961914 10.619H0.105478Z" fill="url(#paint0_linear_208_275)"/>
<path d="M22.6554 4.84172L17.9335 7.99778C17.6086 8.21494 17.5198 8.65657 17.7352 8.98417C17.9506 9.31178 18.3886 9.4013 18.7135 9.18414L23.4353 6.02808C23.7602 5.81092 23.849 5.36929 23.6336 5.04169C23.4183 4.71408 22.9803 4.62456 22.6554 4.84172Z" fill="white"/>
</g>
<defs>
<linearGradient id="paint0_linear_208_275" x1="16.5506" y1="-0.00354004" x2="16.5506" y2="17.3683" gradientUnits="userSpaceOnUse">
<stop stop-color="#0082FF"/>
<stop offset="1" stop-color="#99C7FF"/>
</linearGradient>
<clipPath id="clip0_208_275">
<rect width="32.8947" height="17.3611" fill="white" transform="translate(0.105469)"/>
</clipPath>
</defs>
</svg>
