<svg width="30" height="30" viewBox="0 0 30 30" fill="none" xmlns="http://www.w3.org/2000/svg">
<path d="M23.079 4.05005C22.1895 3.53636 21.2076 3.2029 20.1893 3.06873C19.1709 2.93455 18.1361 3.00228 17.144 3.26804C16.1518 3.53381 15.2217 3.99241 14.4068 4.61765C13.5919 5.24289 12.9081 6.02253 12.3945 6.91205L12.1005 7.42205C12.001 7.59431 11.9741 7.79902 12.0256 7.99115C12.0771 8.18328 12.2027 8.34709 12.375 8.44655L18.126 11.7675L14.9745 17.2831C14.7337 17.2604 14.4919 17.2494 14.25 17.25C11.2695 17.25 8.6775 18.9375 6.999 21.3796L7.0545 21.3766C7.54245 21.357 8.02353 21.4967 8.42509 21.7746C8.82665 22.0525 9.1269 22.4535 9.2805 22.917C9.8025 24.495 11.6535 24.384 12.1215 23.022C12.2735 22.5784 12.5604 22.1933 12.9421 21.9206C13.3237 21.648 13.781 21.5014 14.25 21.5014C14.719 21.5014 15.1763 21.648 15.5579 21.9206C15.9396 22.1933 16.2265 22.5784 16.3785 23.022C16.845 24.384 18.6975 24.495 19.2195 22.917C19.376 22.4447 19.6847 22.0376 20.0973 21.7594C20.5098 21.4812 21.0029 21.3476 21.4995 21.3796C20.2665 19.584 18.54 18.198 16.527 17.589L19.425 12.5175L24.6225 15.5175C24.7948 15.617 24.9995 15.644 25.1916 15.5925C25.3837 15.541 25.5475 15.4153 25.647 15.243L25.9425 14.733C26.9793 12.9367 27.2601 10.802 26.7231 8.79853C26.1861 6.79511 24.8753 5.08704 23.079 4.05005ZM7.857 23.3881C7.8056 23.2337 7.70543 23.1003 7.57159 23.0079C7.43776 22.9155 7.27751 22.8691 7.115 22.8757C6.95249 22.8823 6.79653 22.9416 6.67063 23.0445C6.54473 23.1475 6.45572 23.2886 6.417 23.4465C6.162 24.4875 5.679 25.059 5.1285 25.392C4.5525 25.7385 3.819 25.8736 3 25.8736C2.80109 25.8736 2.61032 25.9526 2.46967 26.0932C2.32902 26.2339 2.25 26.4246 2.25 26.6236C2.25 26.8225 2.32902 27.0132 2.46967 27.1539C2.61032 27.2945 2.80109 27.3736 3 27.3736C3.957 27.3736 4.9995 27.2206 5.904 26.6761C6.44317 26.3503 6.89756 25.9016 7.23 25.3665C9.0195 27.648 12.513 27.6376 14.25 25.3426C16.0155 27.6735 19.59 27.648 21.3525 25.257C21.8311 25.9088 22.4553 26.4396 23.1754 26.8074C23.8954 27.1751 24.6915 27.3695 25.5 27.375C25.6989 27.375 25.8897 27.296 26.0303 27.1554C26.171 27.0147 26.25 26.824 26.25 26.625C26.25 26.4261 26.171 26.2354 26.0303 26.0947C25.8897 25.9541 25.6989 25.875 25.5 25.875C24.0255 25.875 22.5555 24.915 22.0695 23.397C22.021 23.2467 21.9262 23.1156 21.7988 23.0223C21.6713 22.929 21.5177 22.8783 21.3597 22.8775C21.2018 22.8766 21.0476 22.9257 20.9192 23.0176C20.7907 23.1096 20.6946 23.2398 20.6445 23.3895C19.68 26.298 15.9045 26.2605 14.9595 23.5096C14.9088 23.3617 14.8132 23.2333 14.686 23.1424C14.5588 23.0515 14.4063 23.0027 14.25 23.0027C14.0937 23.0027 13.9412 23.0515 13.814 23.1424C13.6868 23.2333 13.5912 23.3617 13.5405 23.5096C12.5955 26.2605 8.82 26.298 7.8555 23.3895" fill="#89C6FF"/>
</svg>
