<svg width="28" height="28" viewBox="0 0 28 28" fill="none" xmlns="http://www.w3.org/2000/svg">
<path d="M19.8333 22.1667H22.1666V12.8333H15.1666V22.1667H17.5V15.1667H19.8333V22.1667ZM3.49998 22.1667V4.66667C3.49998 4.35725 3.6229 4.0605 3.84169 3.84171C4.06048 3.62292 4.35723 3.5 4.66665 3.5H21C21.3094 3.5 21.6061 3.62292 21.8249 3.84171C22.0437 4.0605 22.1666 4.35725 22.1666 4.66667V10.5H24.5V22.1667H25.6666V24.5H2.33331V22.1667H3.49998ZM8.16665 12.8333V15.1667H10.5V12.8333H8.16665ZM8.16665 17.5V19.8333H10.5V17.5H8.16665ZM8.16665 8.16667V10.5H10.5V8.16667H8.16665Z" fill="#89C6FF"/>
</svg>
