<svg width="22" height="22" viewBox="0 0 22 22" fill="none" xmlns="http://www.w3.org/2000/svg">
<path d="M9.16683 4.58301H2.75016C2.50705 4.58301 2.27389 4.67959 2.10198 4.85149C1.93007 5.0234 1.8335 5.25656 1.8335 5.49967V17.4163C1.8335 17.6595 1.93007 17.8926 2.10198 18.0645C2.27389 18.2364 2.50705 18.333 2.75016 18.333H19.2502C19.4933 18.333 19.7264 18.2364 19.8983 18.0645C20.0703 17.8926 20.1668 17.6595 20.1668 17.4163V16.2705" stroke="#AAAAAA" stroke-width="1.5" stroke-linecap="round" stroke-linejoin="round"/>
<path d="M4.5835 10.541H8.25016M4.5835 14.2077H15.5835" stroke="#AAAAAA" stroke-width="1.5" stroke-linecap="round"/>
<path d="M15.5835 10.083C17.1023 10.083 18.3335 8.85179 18.3335 7.33301C18.3335 5.81422 17.1023 4.58301 15.5835 4.58301C14.0647 4.58301 12.8335 5.81422 12.8335 7.33301C12.8335 8.85179 14.0647 10.083 15.5835 10.083Z" stroke="#AAAAAA" stroke-width="1.5" stroke-linecap="round" stroke-linejoin="round"/>
<path d="M20.167 13.025C19.2718 11.2756 17.417 10.083 15.5836 10.083C13.7503 10.083 12.8368 10.6023 11.894 11.458" stroke="#AAAAAA" stroke-width="1.5" stroke-linecap="round" stroke-linejoin="round"/>
</svg>
