<svg width="20" height="20" viewBox="0 0 20 20" fill="none" xmlns="http://www.w3.org/2000/svg">
<path d="M1.71317 16.2622L6.7865 11.1372L9.52817 13.7622L12.879 10.833L14.7457 12.653M18.3332 4.58301C18.3332 4.25149 18.2015 3.93354 17.9671 3.69912C17.7326 3.4647 17.4147 3.33301 17.0832 3.33301H2.9165C2.58498 3.33301 2.26704 3.4647 2.03262 3.69912C1.7982 3.93354 1.6665 4.25149 1.6665 4.58301V8.33301H18.3332V4.58301Z" stroke="#AAAAAA" stroke-width="1.5" stroke-linecap="round" stroke-linejoin="round"/>
<path d="M18.3332 7.49967V15.4163C18.3332 15.7479 18.2015 16.0658 17.9671 16.3002C17.7326 16.5346 17.4147 16.6663 17.0832 16.6663H4.99984M7.96317 5.83301H15.4632M4.629 5.83301H5.46234M1.6665 7.49967V11.2497" stroke="#AAAAAA" stroke-width="1.5" stroke-linecap="round" stroke-linejoin="round"/>
</svg>
