<svg width="14" height="14" viewBox="0 0 14 14" fill="none" xmlns="http://www.w3.org/2000/svg">
<mask id="mask0_16013_1347" style="mask-type:alpha" maskUnits="userSpaceOnUse" x="0" y="0" width="14" height="14">
<rect width="14" height="14" fill="#D9D9D9"/>
</mask>
<g mask="url(#mask0_16013_1347)">
<path d="M6.4165 9.91602H7.58317V6.41602H6.4165V9.91602ZM6.99984 5.24935C7.16512 5.24935 7.30366 5.19345 7.41546 5.08164C7.52727 4.96984 7.58317 4.83129 7.58317 4.66602C7.58317 4.50074 7.52727 4.3622 7.41546 4.25039C7.30366 4.13859 7.16512 4.08268 6.99984 4.08268C6.83456 4.08268 6.69602 4.13859 6.58421 4.25039C6.47241 4.3622 6.4165 4.50074 6.4165 4.66602C6.4165 4.83129 6.47241 4.96984 6.58421 5.08164C6.69602 5.19345 6.83456 5.24935 6.99984 5.24935ZM6.99984 12.8327C6.19289 12.8327 5.43456 12.6796 4.72484 12.3733C4.01512 12.0671 3.39775 11.6514 2.87275 11.1264C2.34775 10.6014 1.93213 9.98407 1.62588 9.27435C1.31963 8.56463 1.1665 7.80629 1.1665 6.99935C1.1665 6.1924 1.31963 5.43407 1.62588 4.72435C1.93213 4.01463 2.34775 3.39727 2.87275 2.87227C3.39775 2.34727 4.01512 1.93164 4.72484 1.62539C5.43456 1.31914 6.19289 1.16602 6.99984 1.16602C7.80678 1.16602 8.56512 1.31914 9.27484 1.62539C9.98456 1.93164 10.6019 2.34727 11.1269 2.87227C11.6519 3.39727 12.0675 4.01463 12.3738 4.72435C12.68 5.43407 12.8332 6.1924 12.8332 6.99935C12.8332 7.80629 12.68 8.56463 12.3738 9.27435C12.0675 9.98407 11.6519 10.6014 11.1269 11.1264C10.6019 11.6514 9.98456 12.0671 9.27484 12.3733C8.56512 12.6796 7.80678 12.8327 6.99984 12.8327ZM6.99984 11.666C8.30262 11.666 9.40609 11.2139 10.3103 10.3098C11.2144 9.4056 11.6665 8.30213 11.6665 6.99935C11.6665 5.69657 11.2144 4.5931 10.3103 3.68893C9.40609 2.78477 8.30262 2.33268 6.99984 2.33268C5.69706 2.33268 4.59359 2.78477 3.68942 3.68893C2.78525 4.5931 2.33317 5.69657 2.33317 6.99935C2.33317 8.30213 2.78525 9.4056 3.68942 10.3098C4.59359 11.2139 5.69706 11.666 6.99984 11.666Z" fill="#676767"/>
</g>
</svg>
