<svg width="16" height="16" viewBox="0 0 16 16" fill="none" xmlns="http://www.w3.org/2000/svg">
<path d="M13.3351 1.32812H6.22396V3.55035H7.11285V2.21701H13.3351C13.6017 2.21701 13.7795 2.39479 13.7795 2.66146V7.55035C13.7795 7.81701 13.6017 7.99479 13.3351 7.99479H7.55729V11.1059H5.20174L3.55729 12.3948V11.1059H2.22396C1.95729 11.1059 1.77951 10.9281 1.77951 10.6615V5.77257C1.77951 5.5059 1.95729 5.32812 2.22396 5.32812H8.00174V4.43924H2.22396C1.4684 4.43924 0.890625 5.01701 0.890625 5.77257V10.6615C0.890625 11.417 1.4684 11.9948 2.22396 11.9948H2.6684V14.2615L5.4684 11.9948H8.44618V8.88368H13.3351C14.0906 8.88368 14.6684 8.3059 14.6684 7.55035V2.66146C14.6684 1.9059 14.0906 1.32812 13.3351 1.32812Z" fill="#676767"/>
<path d="M2.75586 10.1743H3.82253L4.08919 9.46319H5.46697L5.73364 10.1743H6.8003L5.28919 6.21875H4.22253L2.75586 10.1743ZM4.75586 7.32986L5.2003 8.70764H4.31142L4.75586 7.32986Z" fill="#676767"/>
<path d="M8.89062 7.56076C9.37951 7.56076 10.0462 7.42743 10.6684 7.11632C11.2906 7.42743 12.0017 7.56076 12.4462 7.56076V6.67188C12.4462 6.67188 12.0017 6.67188 11.5128 6.4941C12.0462 5.96076 12.4462 5.16076 12.4462 4.00521V3.56076H11.1128V2.67188H10.224V3.56076H8.89062V4.44965H11.5128C11.424 5.24965 11.0684 5.73854 10.6684 6.04965C10.4017 5.82743 10.1351 5.51632 9.95729 5.11632H9.02396C9.20174 5.6941 9.4684 6.13854 9.82396 6.4941C9.37951 6.67188 8.97951 6.67188 8.89062 6.67188V7.56076Z" fill="#676767"/>
</svg>
