<svg width="16" height="16" viewBox="0 0 16 16" fill="none" xmlns="http://www.w3.org/2000/svg">
<path d="M8 14C8.78793 14 9.56815 13.8448 10.2961 13.5433C11.0241 13.2417 11.6855 12.7998 12.2426 12.2426C12.7998 11.6855 13.2417 11.0241 13.5433 10.2961C13.8448 9.56815 14 8.78793 14 8C14 7.21207 13.8448 6.43185 13.5433 5.7039C13.2417 4.97595 12.7998 4.31451 12.2426 3.75736C11.6855 3.20021 11.0241 2.75825 10.2961 2.45672C9.56815 2.15519 8.78793 2 8 2M8 14C7.21207 14 6.43185 13.8448 5.7039 13.5433C4.97595 13.2417 4.31451 12.7998 3.75736 12.2426C3.20021 11.6855 2.75825 11.0241 2.45672 10.2961C2.15519 9.56815 2 8.78793 2 8C2 7.21207 2.15519 6.43185 2.45672 5.7039C2.75825 4.97595 3.20021 4.31451 3.75736 3.75736C4.31451 3.20021 4.97595 2.75825 5.7039 2.45672C6.43185 2.15519 7.21207 2 8 2M8 14C9.84067 14 10.6273 10.558 10.6273 8C10.6273 5.442 9.84067 2 8 2M8 14C6.15933 14 5.37267 10.558 5.37267 8C5.37267 5.442 6.15933 2 8 2M2.33333 6H13.6667M2.33333 10H13.6667" stroke="#676767" stroke-linecap="round" stroke-linejoin="round"/>
</svg>
