<svg width="14" height="14" viewBox="0 0 14 14" fill="none" xmlns="http://www.w3.org/2000/svg">
<mask id="mask0_18309_3816" style="mask-type:alpha" maskUnits="userSpaceOnUse" x="0" y="0" width="14" height="14">
<rect width="14" height="14" fill="#D9D9D9"/>
</mask>
<g mask="url(#mask0_18309_3816)">
<path d="M6.41602 9.91602H7.58268V6.41602H6.41602V9.91602ZM6.99935 5.24935C7.16463 5.24935 7.30317 5.19345 7.41497 5.08164C7.52678 4.96984 7.58268 4.83129 7.58268 4.66602C7.58268 4.50074 7.52678 4.3622 7.41497 4.25039C7.30317 4.13859 7.16463 4.08268 6.99935 4.08268C6.83407 4.08268 6.69553 4.13859 6.58372 4.25039C6.47192 4.3622 6.41602 4.50074 6.41602 4.66602C6.41602 4.83129 6.47192 4.96984 6.58372 5.08164C6.69553 5.19345 6.83407 5.24935 6.99935 5.24935ZM6.99935 12.8327C6.1924 12.8327 5.43407 12.6796 4.72435 12.3733C4.01463 12.0671 3.39727 11.6514 2.87227 11.1264C2.34727 10.6014 1.93164 9.98407 1.62539 9.27435C1.31914 8.56463 1.16602 7.80629 1.16602 6.99935C1.16602 6.1924 1.31914 5.43407 1.62539 4.72435C1.93164 4.01463 2.34727 3.39727 2.87227 2.87227C3.39727 2.34727 4.01463 1.93164 4.72435 1.62539C5.43407 1.31914 6.1924 1.16602 6.99935 1.16602C7.80629 1.16602 8.56463 1.31914 9.27435 1.62539C9.98407 1.93164 10.6014 2.34727 11.1264 2.87227C11.6514 3.39727 12.0671 4.01463 12.3733 4.72435C12.6796 5.43407 12.8327 6.1924 12.8327 6.99935C12.8327 7.80629 12.6796 8.56463 12.3733 9.27435C12.0671 9.98407 11.6514 10.6014 11.1264 11.1264C10.6014 11.6514 9.98407 12.0671 9.27435 12.3733C8.56463 12.6796 7.80629 12.8327 6.99935 12.8327ZM6.99935 11.666C8.30213 11.666 9.4056 11.2139 10.3098 10.3098C11.2139 9.4056 11.666 8.30213 11.666 6.99935C11.666 5.69657 11.2139 4.5931 10.3098 3.68893C9.4056 2.78477 8.30213 2.33268 6.99935 2.33268C5.69657 2.33268 4.5931 2.78477 3.68893 3.68893C2.78477 4.5931 2.33268 5.69657 2.33268 6.99935C2.33268 8.30213 2.78477 9.4056 3.68893 10.3098C4.5931 11.2139 5.69657 11.666 6.99935 11.666Z" fill="#676767"/>
</g>
</svg>