<svg width="13" height="13" viewBox="0 0 13 13" fill="none" xmlns="http://www.w3.org/2000/svg">
<path d="M4.66667 12H8.33333M4.66667 12V8.94444M4.66667 12H1.36667C1.26942 12 1.17616 11.9614 1.10739 11.8926C1.03863 11.8238 1 11.7306 1 11.6333V9.31111C1 9.21387 1.03863 9.1206 1.10739 9.05184C1.17616 8.98307 1.26942 8.94444 1.36667 8.94444H4.66667M8.33333 12V4.66667M8.33333 12H11.6333C11.7306 12 11.8238 11.9614 11.8926 11.8926C11.9614 11.8238 12 11.7306 12 11.6333V1.36667C12 1.26942 11.9614 1.17616 11.8926 1.10739C11.8238 1.03863 11.7306 1 11.6333 1H8.7C8.60275 1 8.50949 1.03863 8.44073 1.10739C8.37196 1.17616 8.33333 1.26942 8.33333 1.36667V4.66667M4.66667 8.94444V5.03333C4.66667 4.93609 4.7053 4.84282 4.77406 4.77406C4.84282 4.7053 4.93609 4.66667 5.03333 4.66667H8.33333" stroke="#676767" stroke-width="1.5"/>
</svg>
