<svg width="20" height="20" viewBox="0 0 20 20" fill="none" xmlns="http://www.w3.org/2000/svg">
<path d="M10.0002 11.6663V13.333C8.67408 13.333 7.40231 13.8598 6.46463 14.7975C5.52695 15.7352 5.00016 17.0069 5.00016 18.333H3.3335C3.3335 16.5649 4.03588 14.8692 5.28612 13.619C6.53636 12.3687 8.23205 11.6663 10.0002 11.6663ZM10.0002 10.833C7.23766 10.833 5.00016 8.59551 5.00016 5.83301C5.00016 3.07051 7.23766 0.833008 10.0002 0.833008C12.7627 0.833008 15.0002 3.07051 15.0002 5.83301C15.0002 8.59551 12.7627 10.833 10.0002 10.833ZM10.0002 9.16634C11.8418 9.16634 13.3335 7.67467 13.3335 5.83301C13.3335 3.99134 11.8418 2.49967 10.0002 2.49967C8.1585 2.49967 6.66683 3.99134 6.66683 5.83301C6.66683 7.67467 8.1585 9.16634 10.0002 9.16634ZM17.5002 14.1663H18.3335V18.333H11.6668V14.1663H12.5002V13.333C12.5002 12.67 12.7636 12.0341 13.2324 11.5652C13.7012 11.0964 14.3371 10.833 15.0002 10.833C15.6632 10.833 16.2991 11.0964 16.7679 11.5652C17.2368 12.0341 17.5002 12.67 17.5002 13.333V14.1663ZM15.8335 14.1663V13.333C15.8335 13.112 15.7457 12.9 15.5894 12.7438C15.4331 12.5875 15.2212 12.4997 15.0002 12.4997C14.7791 12.4997 14.5672 12.5875 14.4109 12.7438C14.2546 12.9 14.1668 13.112 14.1668 13.333V14.1663H15.8335Z" fill="#AAAAAA"/>
</svg>
