<svg width="14" height="14" viewBox="0 0 14 14" fill="none" xmlns="http://www.w3.org/2000/svg">
<path d="M6.44446 0.22168C7.9003 0.251472 9.30155 0.801263 10.3907 1.77734L10.6027 1.97754C11.6395 3.00008 12.2787 4.36259 12.3986 5.82031L12.4161 6.11133C12.465 7.53657 12.0111 8.9355 11.1329 10.0645L13.5441 12.457L13.545 12.458L13.6368 12.5732C13.7171 12.6967 13.7609 12.8419 13.7609 12.9912C13.7608 13.1899 13.6831 13.3806 13.545 13.5234L13.5441 13.5244C13.4728 13.5962 13.3884 13.6535 13.295 13.6924C13.2016 13.7313 13.1013 13.751 13.0001 13.751C12.8989 13.751 12.7986 13.7313 12.7052 13.6924C12.6118 13.6535 12.5274 13.5962 12.4562 13.5244V13.5254L10.0646 11.1328C8.93543 12.0115 7.53617 12.4659 6.11047 12.417L5.81946 12.3994C4.36174 12.2795 2.99923 11.6403 1.97668 10.6035L1.77649 10.3916C0.735329 9.22979 0.179129 7.71281 0.221802 6.15332L0.23645 5.8623C0.34574 4.41015 0.971717 3.0411 2.00598 2.00684L2.21692 1.80566C3.29461 0.826283 4.69038 0.262698 6.15247 0.222656L6.44446 0.22168ZM8.08118 2.11523C7.35089 1.81274 6.55626 1.70565 5.77551 1.80176L5.4425 1.85547C4.66743 2.00964 3.94738 2.36153 3.35168 2.875L3.10461 3.10547C2.5459 3.66418 2.1428 4.35652 1.93274 5.11426L1.85461 5.44336C1.67841 6.32921 1.76874 7.24758 2.11438 8.08203L2.255 8.38867C2.60879 9.09101 3.13903 9.69177 3.79602 10.1309L4.08411 10.3086C4.76842 10.6959 5.54301 10.9013 6.33313 10.9014C7.54428 10.9014 8.70621 10.4199 9.56262 9.56348C10.419 8.70706 10.9005 7.54514 10.9005 6.33398C10.9005 5.43087 10.6317 4.54779 10.13 3.79688C9.69092 3.13988 9.09015 2.60964 8.38782 2.25586L8.08118 2.11523Z" fill="#676767" stroke="#676767" stroke-width="0.2"/>
</svg>
