<svg width="23" height="16" viewBox="0 0 23 16" fill="none" xmlns="http://www.w3.org/2000/svg">
<path d="M3.55 4.15V2C3.55 0.9 4.54 0 5.75 0H16.75C17.96 0 18.95 0.9 18.95 2V4.16C17.674 4.57 16.75 5.67 16.75 6.97V9H5.75V6.96C5.75 5.67 4.826 4.56 3.55 4.15ZM20.05 5C18.84 5 17.85 5.9 17.85 7V10H4.65V7C4.65 6.46957 4.41822 5.96086 4.00564 5.58579C3.59306 5.21071 3.03348 5 2.45 5C1.86652 5 1.30694 5.21071 0.894365 5.58579C0.481785 5.96086 0.25 6.46957 0.25 7V12C0.25 13.1 1.24 14 2.45 14V16H4.65V14H17.85V16H20.05V14C21.26 14 22.25 13.1 22.25 12V7C22.25 5.9 21.26 5 20.05 5Z" fill="#0083FF"/>
</svg>
