<svg width="22" height="23" viewBox="0 0 22 23" fill="none" xmlns="http://www.w3.org/2000/svg">
<path fill-rule="evenodd" clip-rule="evenodd" d="M11.1785 8C10.1839 8 9.23008 8.39509 8.52682 9.09835C7.82355 9.80161 7.42847 10.7554 7.42847 11.75C7.42847 12.7446 7.82355 13.6984 8.52682 14.4017C9.23008 15.1049 10.1839 15.5 11.1785 15.5C12.173 15.5 13.1269 15.1049 13.8301 14.4017C14.5334 13.6984 14.9285 12.7446 14.9285 11.75C14.9285 10.7554 14.5334 9.80161 13.8301 9.09835C13.1269 8.39509 12.173 8 11.1785 8ZM8.92847 11.75C8.92847 11.1533 9.16552 10.581 9.58748 10.159C10.0094 9.73705 10.5817 9.5 11.1785 9.5C11.7752 9.5 12.3475 9.73705 12.7695 10.159C13.1914 10.581 13.4285 11.1533 13.4285 11.75C13.4285 12.3467 13.1914 12.919 12.7695 13.341C12.3475 13.7629 11.7752 14 11.1785 14C10.5817 14 10.0094 13.7629 9.58748 13.341C9.16552 12.919 8.92847 12.3467 8.92847 11.75Z" fill="white" stroke="white" stroke-width="0.5"/>
<path fill-rule="evenodd" clip-rule="evenodd" d="M11.1535 1C10.7085 1 10.3375 1 10.0335 1.02C9.7227 1.03252 9.41617 1.09673 9.12649 1.21C8.79274 1.34809 8.48946 1.55057 8.23397 1.80589C7.97849 2.0612 7.7758 2.36434 7.63749 2.698C7.49249 3.048 7.45349 3.418 7.43749 3.82C7.4357 3.96698 7.3967 4.11112 7.32413 4.23895C7.25156 4.36678 7.14778 4.47414 7.02249 4.551C6.89331 4.62132 6.74842 4.65775 6.60134 4.65687C6.45427 4.656 6.30982 4.61785 6.18149 4.546C5.82549 4.358 5.48549 4.207 5.10949 4.157C4.75143 4.1099 4.3876 4.13379 4.03878 4.2273C3.68996 4.32081 3.36297 4.48212 3.07649 4.702C2.83388 4.89648 2.62536 5.13001 2.45949 5.393C2.28949 5.647 2.10349 5.968 1.88149 6.353L1.85649 6.397C1.63349 6.782 1.44849 7.103 1.31449 7.377C1.17449 7.663 1.06449 7.945 1.02449 8.257C0.929086 8.97999 1.12477 9.71127 1.56849 10.29C1.79949 10.591 2.10049 10.81 2.44049 11.024C2.56712 11.0991 2.67263 11.2051 2.74713 11.332C2.82164 11.459 2.8627 11.6028 2.86649 11.75C2.8627 11.8972 2.82164 12.041 2.74713 12.168C2.67263 12.2949 2.56712 12.4009 2.44049 12.476C2.10049 12.69 1.80049 12.909 1.56849 13.21C1.3486 13.4965 1.1873 13.8235 1.09379 14.1723C1.00028 14.5211 0.976388 14.8849 1.02349 15.243C1.06449 15.555 1.17349 15.837 1.31349 16.123C1.44849 16.397 1.63349 16.718 1.85649 17.103L1.88149 17.147C2.10349 17.532 2.28949 17.853 2.45949 18.107C2.63649 18.37 2.82649 18.607 3.07649 18.797C3.3629 19.0171 3.68985 19.1785 4.03867 19.2722C4.3875 19.3659 4.75136 19.39 5.10949 19.343C5.48549 19.293 5.82549 19.143 6.18149 18.954C6.30969 18.8823 6.45396 18.8443 6.60084 18.8434C6.74772 18.8425 6.89243 18.8789 7.02149 18.949C7.1478 19.0249 7.25249 19.132 7.32551 19.26C7.39853 19.388 7.43743 19.5326 7.43849 19.68C7.45349 20.082 7.49249 20.452 7.63849 20.802C7.77658 21.1357 7.97906 21.439 8.23437 21.6945C8.48969 21.95 8.79283 22.1527 9.12649 22.291C9.41649 22.411 9.71649 22.458 10.0335 22.479C10.3375 22.5 10.7085 22.5 11.1535 22.5H11.2035C11.6485 22.5 12.0195 22.5 12.3235 22.48C12.6415 22.458 12.9405 22.411 13.2305 22.29C13.5642 22.1519 13.8675 21.9494 14.123 21.6941C14.3785 21.4388 14.5812 21.1357 14.7195 20.802C14.8645 20.452 14.9035 20.082 14.9195 19.68C14.9211 19.5328 14.96 19.3885 15.0326 19.2605C15.1052 19.1325 15.209 19.025 15.3345 18.948C15.4637 18.8778 15.6087 18.8416 15.7558 18.8426C15.9028 18.8437 16.0472 18.882 16.1755 18.954C16.5315 19.142 16.8715 19.293 17.2475 19.342C17.9705 19.4374 18.7018 19.2417 19.2805 18.798C19.5305 18.606 19.7205 18.37 19.8975 18.107C20.0675 17.853 20.2535 17.532 20.4755 17.147L20.5005 17.103C20.7235 16.718 20.9085 16.397 21.0425 16.123C21.1825 15.837 21.2925 15.554 21.3325 15.243C21.4279 14.52 21.2322 13.7887 20.7885 13.21C20.5575 12.909 20.2565 12.69 19.9165 12.476C19.7899 12.4009 19.6843 12.2949 19.6098 12.168C19.5353 12.041 19.4943 11.8972 19.4905 11.75C19.4905 11.472 19.6425 11.196 19.9165 11.024C20.2565 10.81 20.5565 10.591 20.7885 10.29C21.0084 10.0035 21.1697 9.67653 21.2632 9.3277C21.3567 8.97888 21.3806 8.61506 21.3335 8.257C21.2864 7.9496 21.1884 7.65219 21.0435 7.377C20.8727 7.04478 20.6916 6.71795 20.5005 6.397L20.4755 6.353C20.2928 6.02708 20.1001 5.70692 19.8975 5.393C19.7315 5.13036 19.523 4.89718 19.2805 4.703C18.9941 4.48294 18.6671 4.32146 18.3183 4.22778C17.9695 4.13409 17.6056 4.11004 17.2475 4.157C16.8715 4.207 16.5315 4.357 16.1755 4.546C16.0473 4.61767 15.903 4.65572 15.7561 4.6566C15.6093 4.65747 15.4645 4.62114 15.3355 4.551C15.2098 4.47438 15.1056 4.36712 15.0327 4.23928C14.9598 4.11143 14.9205 3.96717 14.9185 3.82C14.9035 3.418 14.8645 3.048 14.7185 2.698C14.5804 2.36425 14.3779 2.06097 14.1226 1.80549C13.8673 1.55 13.5641 1.34731 13.2305 1.209C12.9405 1.089 12.6405 1.042 12.3235 1.021C12.0195 1 11.6485 1 11.2035 1H11.1535ZM9.70049 2.595C9.77749 2.563 9.89449 2.534 10.1355 2.517C10.3825 2.5 10.7025 2.5 11.1785 2.5C11.6545 2.5 11.9745 2.5 12.2215 2.517C12.4625 2.534 12.5795 2.563 12.6565 2.595C12.9635 2.722 13.2065 2.965 13.3335 3.272C13.3735 3.368 13.4065 3.519 13.4195 3.876C13.4495 4.668 13.8585 5.431 14.5845 5.85C15.3105 6.269 16.1755 6.242 16.8765 5.872C17.1925 5.705 17.3395 5.658 17.4435 5.645C17.7721 5.60158 18.1044 5.69043 18.3675 5.892C18.4335 5.943 18.5175 6.03 18.6525 6.23C18.7915 6.436 18.9515 6.713 19.1895 7.125C19.4275 7.537 19.5865 7.815 19.6955 8.037C19.8025 8.254 19.8355 8.37 19.8455 8.453C19.8889 8.78157 19.8001 9.11392 19.5985 9.377C19.5345 9.46 19.4205 9.564 19.1185 9.754C18.4465 10.176 17.9905 10.912 17.9905 11.75C17.9905 12.588 18.4465 13.324 19.1185 13.746C19.4205 13.936 19.5345 14.04 19.5985 14.123C19.8005 14.386 19.8885 14.718 19.8455 15.047C19.8355 15.13 19.8015 15.247 19.6955 15.463C19.5865 15.686 19.4275 15.963 19.1895 16.375C18.9515 16.787 18.7905 17.064 18.6525 17.27C18.5175 17.47 18.4335 17.557 18.3675 17.608C18.1044 17.8096 17.7721 17.8984 17.4435 17.855C17.3395 17.842 17.1935 17.795 16.8765 17.628C16.1765 17.258 15.3105 17.23 14.5845 17.649C13.8585 18.068 13.4495 18.832 13.4195 19.624C13.4065 19.981 13.3735 20.132 13.3335 20.228C13.2707 20.3798 13.1785 20.5177 13.0624 20.6339C12.9462 20.7501 12.8083 20.8422 12.6565 20.905C12.5795 20.937 12.4625 20.966 12.2215 20.983C11.9745 21 11.6545 21 11.1785 21C10.7025 21 10.3825 21 10.1355 20.983C9.89449 20.966 9.77749 20.937 9.70049 20.905C9.54869 20.8422 9.41076 20.7501 9.2946 20.6339C9.17843 20.5177 9.08631 20.3798 9.02349 20.228C8.98349 20.132 8.95049 19.981 8.93749 19.624C8.90749 18.832 8.49849 18.069 7.77249 17.65C7.04649 17.231 6.18149 17.258 5.48049 17.628C5.16449 17.795 5.01749 17.842 4.91349 17.855C4.58492 17.8984 4.25256 17.8096 3.98949 17.608C3.92349 17.557 3.83949 17.47 3.70449 17.27C3.51637 16.9772 3.33728 16.6788 3.16749 16.375C2.92949 15.963 2.77049 15.685 2.66149 15.463C2.55449 15.246 2.52149 15.13 2.51149 15.047C2.46807 14.7184 2.55691 14.3861 2.75849 14.123C2.82249 14.04 2.93649 13.936 3.23849 13.746C3.91049 13.324 4.36649 12.588 4.36649 11.75C4.36649 10.912 3.91049 10.176 3.23849 9.754C2.93649 9.564 2.82249 9.46 2.75849 9.377C2.55691 9.11392 2.46807 8.78157 2.51149 8.453C2.52149 8.37 2.55549 8.253 2.66149 8.037C2.77049 7.814 2.92949 7.537 3.16749 7.125C3.40549 6.713 3.56649 6.436 3.70449 6.23C3.83949 6.03 3.92349 5.943 3.98949 5.892C4.25256 5.69043 4.58492 5.60158 4.91349 5.645C5.01749 5.658 5.16349 5.705 5.48049 5.872C6.18049 6.242 7.04649 6.27 7.77249 5.85C8.49849 5.431 8.90749 4.668 8.93749 3.876C8.95049 3.519 8.98349 3.368 9.02349 3.272C9.15049 2.965 9.39349 2.722 9.70049 2.595Z" fill="white" stroke="white" stroke-width="0.5"/>
</svg>
