<svg width="16" height="16" viewBox="0 0 16 16" fill="none" xmlns="http://www.w3.org/2000/svg">
<path d="M14.5432 13.4571L14.5432 13.4571L14.5417 13.4556L12.1318 11.0652C13.07 9.85933 13.5223 8.34415 13.3969 6.81927C13.269 5.26445 12.5502 3.81772 11.3884 2.77656C10.2266 1.7354 8.71002 1.17895 7.15053 1.22162C5.59104 1.26429 4.10717 1.90285 3.00403 3.00599C1.9009 4.10912 1.26234 5.59299 1.21967 7.15248C1.17699 8.71197 1.73345 10.2285 2.77461 11.3904C3.81577 12.5522 5.2625 13.2709 6.81732 13.3988C8.34232 13.5242 9.85762 13.0719 11.0635 12.1335L13.4536 14.5237C13.4537 14.5238 13.4538 14.5239 13.4539 14.5239C13.5251 14.5957 13.6098 14.6526 13.7031 14.6915C13.7966 14.7304 13.8968 14.7505 13.998 14.7505C14.0992 14.7505 14.1994 14.7304 14.2928 14.6915C14.3863 14.6526 14.471 14.5955 14.5423 14.5237L14.5432 14.5228C14.6814 14.3798 14.7586 14.1888 14.7586 13.9899C14.7586 13.7911 14.6814 13.6001 14.5432 13.4571ZM7.33132 11.8999C6.42811 11.8999 5.5452 11.6321 4.79421 11.1303C4.04323 10.6285 3.45791 9.91531 3.11227 9.08086C2.76663 8.24641 2.67619 7.3282 2.8524 6.44236C3.0286 5.55651 3.46354 4.74281 4.1022 4.10415C4.74086 3.46549 5.55456 3.03056 6.4404 2.85435C7.32625 2.67814 8.24445 2.76858 9.0789 3.11422C9.91335 3.45986 10.6266 4.04518 11.1284 4.79616C11.6302 5.54715 11.898 6.43007 11.898 7.33327C11.898 8.54442 11.4169 9.70597 10.5604 10.5624C9.70402 11.4188 8.54247 11.8999 7.33132 11.8999Z" fill="#B7B7B7" stroke="#B7B7B7" stroke-width="0.2"/>
</svg>
