<svg width="23" height="16" viewBox="0 0 23 16" fill="none" xmlns="http://www.w3.org/2000/svg">
<path d="M4.05781 4.15V2C4.05781 0.9 5.04781 0 6.25781 0H17.2578C18.4678 0 19.4578 0.9 19.4578 2V4.16C18.1818 4.57 17.2578 5.67 17.2578 6.97V9H6.25781V6.96C6.25781 5.67 5.33381 4.56 4.05781 4.15ZM20.5578 5C19.3478 5 18.3578 5.9 18.3578 7V10H5.15781V7C5.15781 6.46957 4.92603 5.96086 4.51345 5.58579C4.10087 5.21071 3.54129 5 2.95781 5C2.37434 5 1.81476 5.21071 1.40218 5.58579C0.989597 5.96086 0.757813 6.46957 0.757812 7V12C0.757812 13.1 1.74781 14 2.95781 14V16H5.15781V14H18.3578V16H20.5578V14C21.7678 14 22.7578 13.1 22.7578 12V7C22.7578 5.9 21.7678 5 20.5578 5Z" fill="#B4B4B4"/>
</svg>
