<svg width="30" height="30" viewBox="0 0 30 30" fill="none" xmlns="http://www.w3.org/2000/svg">
<path d="M6.24998 6.24998C6.25009 6.00875 6.1804 5.77265 6.04932 5.57014C5.91824 5.36764 5.73136 5.20739 5.51123 5.10873C5.69123 4.96748 5.90873 4.87123 6.14873 4.83623L19.6462 2.90748C20.0008 2.85679 20.3622 2.8829 20.7058 2.98404C21.0495 3.08518 21.3674 3.25898 21.638 3.49367C21.9086 3.72837 22.1256 4.01848 22.2743 4.34436C22.423 4.67024 22.5 5.02427 22.5 5.38248V6.40748C22.0916 6.30248 21.6716 6.24956 21.25 6.24998H6.24998ZM12.1875 16.25C12.1875 15.5041 12.4838 14.7887 13.0112 14.2612C13.5387 13.7338 14.2541 13.4375 15 13.4375C15.7459 13.4375 16.4613 13.7338 16.9887 14.2612C17.5162 14.7887 17.8125 15.5041 17.8125 16.25C17.8125 16.9959 17.5162 17.7113 16.9887 18.2387C16.4613 18.7662 15.7459 19.0625 15 19.0625C14.2541 19.0625 13.5387 18.7662 13.0112 18.2387C12.4838 17.7113 12.1875 16.9959 12.1875 16.25Z" fill="#89C6FF"/>
<path fill-rule="evenodd" clip-rule="evenodd" d="M22.5 7.7125C23.9562 8.22875 25 9.6175 25 11.25V23.75C25 24.7446 24.6049 25.6984 23.9017 26.4017C23.1984 27.1049 22.2446 27.5 21.25 27.5H8.75C7.75544 27.5 6.80161 27.1049 6.09835 26.4017C5.39509 25.6984 5 24.7446 5 23.75V6.25C5 6.58152 5.1317 6.89946 5.36612 7.13388C5.60054 7.3683 5.91848 7.5 6.25 7.5H21.25C21.6875 7.5 22.1087 7.575 22.5 7.7125ZM15 11.5625C13.7568 11.5625 12.5645 12.0564 11.6854 12.9354C10.8064 13.8145 10.3125 15.0068 10.3125 16.25C10.3125 17.4932 10.8064 18.6855 11.6854 19.5646C12.5645 20.4436 13.7568 20.9375 15 20.9375C16.2432 20.9375 17.4355 20.4436 18.3146 19.5646C19.1936 18.6855 19.6875 17.4932 19.6875 16.25C19.6875 15.0068 19.1936 13.8145 18.3146 12.9354C17.4355 12.0564 16.2432 11.5625 15 11.5625ZM12.5 22.8125C12.2514 22.8125 12.0129 22.9113 11.8371 23.0871C11.6613 23.2629 11.5625 23.5014 11.5625 23.75C11.5625 23.9986 11.6613 24.2371 11.8371 24.4129C12.0129 24.5887 12.2514 24.6875 12.5 24.6875H17.5C17.7486 24.6875 17.9871 24.5887 18.1629 24.4129C18.3387 24.2371 18.4375 23.9986 18.4375 23.75C18.4375 23.5014 18.3387 23.2629 18.1629 23.0871C17.9871 22.9113 17.7486 22.8125 17.5 22.8125H12.5Z" fill="#89C6FF"/>
</svg>
