<svg width="12" height="12" viewBox="0 0 12 12" fill="none" xmlns="http://www.w3.org/2000/svg">
<g clip-path="url(#clip0_30386_1898)">
<path d="M0.445688 2.97004C0.359058 2.95543 0.184297 2.82621 0.126543 2.75504C-0.145349 2.41944 0.0436631 1.8651 0.47644 1.79281L11.4447 1.78906C11.9623 1.80292 12.1858 2.46027 11.8201 2.81235C11.7785 2.85242 11.6034 2.97004 11.5561 2.97004H10.2342L10.1922 3.01199V10.4563C10.1922 11.0836 9.31349 11.9189 8.68008 11.9519C6.96735 11.8747 5.12448 12.0796 3.42637 11.9605C2.77908 11.9152 2.1678 11.4376 1.92966 10.8428C1.90228 10.7743 1.8104 10.5102 1.8104 10.4563V3.01236L1.7684 2.97041H0.445688V2.97004ZM4.75808 4.77464C4.46969 4.79487 4.25893 5.01436 4.20342 5.29003C4.26643 6.29421 4.11154 7.41675 4.19967 8.4067C4.2668 9.15619 5.31949 9.15881 5.40725 8.40258C5.34987 7.43286 5.49388 6.35601 5.41137 5.39865C5.38137 5.05106 5.13086 4.74805 4.75808 4.77427V4.77464ZM7.14811 4.77389C6.85634 4.79974 6.6227 5.06342 6.59457 5.34696C6.65195 6.31669 6.50794 7.39353 6.59045 8.35089C6.6572 9.12285 7.62664 9.20001 7.7984 8.45989C7.73539 7.45571 7.89028 6.33317 7.80215 5.34322C7.77252 5.01061 7.49013 4.7443 7.14811 4.77427V4.77389Z" fill="#676767"/>
<path d="M4.64257 0H7.35812C7.9604 0.209751 7.94653 0.986953 7.33449 1.17161L4.64257 1.16711C4.05078 0.95961 4.05078 0.207129 4.64257 0Z" fill="#676767"/>
</g>
<defs>
<clipPath id="clip0_30386_1898">
<rect width="12" height="12" fill="white"/>
</clipPath>
</defs>
</svg>
