<svg width="16" height="16" viewBox="0 0 16 16" fill="none" xmlns="http://www.w3.org/2000/svg">
<g clip-path="url(#clip0_12912_433)">
<path d="M0.594007 3.96135C0.4785 3.94187 0.245485 3.76958 0.16848 3.67469C-0.194042 3.22722 0.0579733 2.4881 0.635009 2.39171L15.2594 2.38672C15.9495 2.4052 16.2475 3.28166 15.76 3.7511C15.7044 3.80454 15.4709 3.96135 15.4079 3.96135H13.6453L13.5893 4.01728V13.943C13.5893 14.7795 12.4177 15.8932 11.5732 15.9371C9.28955 15.8343 6.8324 16.1074 4.56825 15.9486C3.7052 15.8882 2.89015 15.2514 2.57263 14.4584C2.53613 14.367 2.41362 14.0149 2.41362 13.943V4.01778L2.35762 3.96185H0.594007V3.96135ZM6.34387 6.36749C5.95934 6.39446 5.67832 6.68711 5.60432 7.05468C5.68832 8.39359 5.48181 9.89031 5.59932 11.2102C5.68883 12.2096 7.09241 12.213 7.20942 11.2047C7.13291 9.91178 7.32493 8.47599 7.21492 7.1995C7.17492 6.73605 6.8409 6.33203 6.34387 6.36699V6.36749ZM9.53057 6.36649C9.14154 6.40095 8.83002 6.75253 8.79252 7.13059C8.86902 8.42355 8.67701 9.85935 8.78702 11.1358C8.87602 12.1651 10.1686 12.268 10.3976 11.2812C10.3136 9.94225 10.5201 8.44552 10.4026 7.12559C10.3631 6.68212 9.98659 6.32704 9.53057 6.36699V6.36649Z" fill="#8D8D8D"/>
<path d="M6.19042 0H9.81115C10.6142 0.279668 10.5957 1.31594 9.77964 1.56214L6.19042 1.55615C5.40137 1.27948 5.40137 0.276172 6.19042 0Z" fill="#8D8D8D"/>
</g>
<defs>
<clipPath id="clip0_12912_433">
<rect width="16" height="16" fill="white"/>
</clipPath>
</defs>
</svg>
