<svg width="16" height="16" viewBox="0 0 16 16" fill="none" xmlns="http://www.w3.org/2000/svg">
<g clip-path="url(#clip0_14045_923)">
<path d="M0.594251 3.96135C0.478744 3.94187 0.245729 3.76958 0.168724 3.67469C-0.193798 3.22722 0.0582174 2.4881 0.635253 2.39171L15.2597 2.38672C15.9497 2.4052 16.2477 3.28166 15.7602 3.7511C15.7047 3.80454 15.4712 3.96135 15.4082 3.96135H13.6456L13.5896 4.01728V13.943C13.5896 14.7795 12.418 15.8932 11.5734 15.9371C9.28979 15.8343 6.83264 16.1074 4.5685 15.9486C3.70545 15.8882 2.89039 15.2514 2.57287 14.4584C2.53637 14.367 2.41386 14.0149 2.41386 13.943V4.01778L2.35786 3.96185H0.594251V3.96135ZM6.34411 6.36749C5.95959 6.39446 5.67857 6.68711 5.60456 7.05468C5.68857 8.39359 5.48206 9.89031 5.59956 11.2102C5.68907 12.2096 7.09266 12.213 7.20966 11.2047C7.13316 9.91178 7.32517 8.47599 7.21516 7.1995C7.17516 6.73605 6.84114 6.33203 6.34411 6.36699V6.36749ZM9.53081 6.36649C9.14178 6.40095 8.83027 6.75253 8.79276 7.13059C8.86927 8.42355 8.67726 9.85935 8.78726 11.1358C8.87627 12.1651 10.1688 12.268 10.3979 11.2812C10.3139 9.94225 10.5204 8.44552 10.4029 7.12559C10.3634 6.68212 9.98684 6.32704 9.53081 6.36699V6.36649Z" fill="#0083FF"/>
<path d="M6.19042 0H9.81115C10.6142 0.279668 10.5957 1.31594 9.77964 1.56214L6.19042 1.55615C5.40137 1.27948 5.40137 0.276172 6.19042 0Z" fill="#0083FF"/>
</g>
<defs>
<clipPath id="clip0_14045_923">
<rect width="16" height="16" fill="white"/>
</clipPath>
</defs>
</svg>
