<svg width="15" height="15" viewBox="0 0 15 15" fill="none" xmlns="http://www.w3.org/2000/svg">
<mask id="mask0_17238_456" style="mask-type:alpha" maskUnits="userSpaceOnUse" x="0" y="0" width="15" height="15">
<rect width="15" height="15" fill="#D9D9D9"/>
</mask>
<g mask="url(#mask0_17238_456)">
<path d="M4.37439 13.125C4.03064 13.125 3.73637 13.0026 3.49158 12.7578C3.24679 12.513 3.12439 12.2188 3.12439 11.875V3.75H2.49939V2.5H5.62439V1.875H9.37439V2.5H12.4994V3.75H11.8744V11.875C11.8744 12.2188 11.752 12.513 11.5072 12.7578C11.2624 13.0026 10.9681 13.125 10.6244 13.125H4.37439ZM10.6244 3.75H4.37439V11.875H10.6244V3.75ZM5.62439 10.625H6.87439V5H5.62439V10.625ZM8.12439 10.625H9.37439V5H8.12439V10.625Z" fill="#676767"/>
</g>
</svg>
