<svg width="15" height="15" viewBox="0 0 15 15" fill="none" xmlns="http://www.w3.org/2000/svg">
<path d="M3.125 13.125C2.78125 13.125 2.48698 13.0026 2.24219 12.7578C1.9974 12.513 1.875 12.2187 1.875 11.875V3.125C1.875 2.78125 1.9974 2.48698 2.24219 2.24219C2.48698 1.9974 2.78125 1.875 3.125 1.875H8.70312L7.45312 3.125H3.125V11.875H11.875V7.53125L13.125 6.28125V11.875C13.125 12.2187 13.0026 12.513 12.7578 12.7578C12.513 13.0026 12.2188 13.125 11.875 13.125H3.125ZM5.625 9.375V6.71875L11.3594 0.984375C11.4844 0.859375 11.625 0.765625 11.7812 0.703125C11.9375 0.640625 12.0938 0.609375 12.25 0.609375C12.4167 0.609375 12.5755 0.640625 12.7266 0.703125C12.8776 0.765625 13.0156 0.859375 13.1406 0.984375L14.0156 1.875C14.1302 2 14.2188 2.13802 14.2812 2.28906C14.3438 2.4401 14.375 2.59375 14.375 2.75C14.375 2.90625 14.3464 3.0599 14.2891 3.21094C14.2318 3.36198 14.1406 3.5 14.0156 3.625L8.28125 9.375H5.625ZM6.875 8.125H7.75L11.375 4.5L10.9375 4.0625L10.4844 3.625L6.875 7.23437V8.125Z" fill="#0087FA"/>
</svg>
