<svg width="13" height="13" viewBox="0 0 13 13" fill="none" xmlns="http://www.w3.org/2000/svg">
<path d="M2.05448 12.2516C1.73365 12.2516 1.459 12.1373 1.23053 11.9089C1.00205 11.6804 0.887817 11.4057 0.887817 11.0849V2.91823C0.887817 2.5974 1.00205 2.32274 1.23053 2.09427C1.459 1.8658 1.73365 1.75156 2.05448 1.75156H7.26073L6.09407 2.91823H2.05448V11.0849H10.2212V7.03073L11.3878 5.86406V11.0849C11.3878 11.4057 11.2736 11.6804 11.0451 11.9089C10.8166 12.1373 10.542 12.2516 10.2212 12.2516H2.05448ZM4.38782 8.75156V6.2724L9.7399 0.920312C9.85657 0.803646 9.98782 0.716146 10.1337 0.657812C10.2795 0.599479 10.4253 0.570312 10.5712 0.570312C10.7267 0.570312 10.875 0.599479 11.0159 0.657812C11.1569 0.716146 11.2857 0.803646 11.4024 0.920312L12.2191 1.75156C12.326 1.86823 12.4087 1.99705 12.467 2.13802C12.5253 2.27899 12.5545 2.4224 12.5545 2.56823C12.5545 2.71406 12.5277 2.85747 12.4743 2.99844C12.4208 3.13941 12.3357 3.26823 12.2191 3.3849L6.86698 8.75156H4.38782ZM5.55448 7.5849H6.37115L9.75448 4.20156L9.34615 3.79323L8.92323 3.3849L5.55448 6.75364V7.5849Z" fill="#0087FA"/>
</svg>
