<svg width="15" height="15" viewBox="0 0 15 15" fill="none" xmlns="http://www.w3.org/2000/svg">
<path d="M12 10V11C12 11.2652 11.8946 11.5196 11.7071 11.7071C11.5196 11.8946 11.2652 12 11 12H4C3.73478 12 3.48043 11.8946 3.29289 11.7071C3.10536 11.5196 3 11.2652 3 11V10M12 5V4C12 3.73478 11.8946 3.48043 11.7071 3.29289C11.5196 3.10536 11.2652 3 11 3H4C3.73478 3 3.48043 3.10536 3.29289 3.29289C3.10536 3.48043 3 3.73478 3 4V5" stroke="#676767" stroke-linecap="round" stroke-linejoin="round"/>
<path d="M7.5 8C7.77614 8 8 7.77614 8 7.5C8 7.22386 7.77614 7 7.5 7C7.22386 7 7 7.22386 7 7.5C7 7.77614 7.22386 8 7.5 8Z" stroke="#676767" stroke-linecap="round" stroke-linejoin="round"/>
<path d="M10.972 7.66306C11.0094 7.55623 11.0094 7.43989 10.972 7.33306C10.6905 6.64327 10.2099 6.05297 9.59157 5.63744C8.97319 5.22192 8.24506 5 7.50004 5C6.75502 5 6.02689 5.22192 5.40851 5.63744C4.79014 6.05297 4.30955 6.64327 4.02804 7.33306C3.99069 7.43989 3.99069 7.55623 4.02804 7.66306C4.30955 8.35285 4.79014 8.94315 5.40851 9.35868C6.02689 9.77421 6.75502 9.99612 7.50004 9.99612C8.24506 9.99612 8.97319 9.77421 9.59157 9.35868C10.2099 8.94315 10.6905 8.35285 10.972 7.66306Z" stroke="#676767" stroke-linecap="round" stroke-linejoin="round"/>
</svg>
